<svg xmlns="http://www.w3.org/2000/svg" width="512" height="512" viewBox="0 0 512 512" role="img" aria-labelledby="title desc">
  <title id="title">Neo Tech Support Logo</title>
  <desc id="desc">Shield with three circuit lines in a green-blue gradient</desc>
  <defs>
    <linearGradient id="g" x1="0" y1="0" x2="1" y2="1">
      <stop offset="0%" stop-color="#17e37d"/>
      <stop offset="100%" stop-color="#09a7ff"/>
    </linearGradient>
    <filter id="s" x="-20%" y="-20%" width="140%" height="140%">
      <feDropShadow dx="0" dy="8" stdDeviation="8" flood-color="#000" flood-opacity="0.35"/>
    </filter>
  </defs>
  <g filter="url(#s)">
    <path d="M256 36c-22 0-154 48-154 48v142c0 108 96 176 154 250 58-74 154-142 154-250V84s-132-48-154-48z" fill="url(#g)"/>
    <g fill="#0b1a24">
      <circle cx="180" cy="210" r="16"/>
      <circle cx="256" cy="180" r="16"/>
      <circle cx="332" cy="210" r="16"/>
      <rect x="172" y="226" width="16" height="120" rx="8"/>
      <rect x="248" y="196" width="16" height="150" rx="8"/>
      <rect x="324" y="226" width="16" height="120" rx="8"/>
    </g>
  </g>
</svg>